<svg aria-hidden="true" version="1.1" xmlns="http://www.w3.org/2000/svg" xmlns:xlink="http://www.w3.org/1999/xlink">
    <defs>
        <symbol xmlns="http://www.w3.org/2000/svg" width="22" height="22" viewBox="0 0 22 22" fill="none" id="location">
            <circle cx="11" cy="11" r="8" stroke="#AEB3B9" stroke-width="2"/>
            <rect x="10" width="2" height="4" fill="#AEB3B9"/>
            <rect x="10" y="18" width="2" height="4" fill="#AEB3B9"/>
            <rect x="4" y="10" width="2" height="4" transform="rotate(90 4 10)" fill="#AEB3B9"/>
            <rect x="22" y="10" width="2" height="4" transform="rotate(90 22 10)" fill="#AEB3B9"/>
        </symbol>
        <symbol xmlns="http://www.w3.org/2000/svg" width="22" height="20" viewBox="0 0 22 20" fill="none" id="star1">
            <path d="M11 1.61804L12.9941 7.75532L13.1064 8.10081H13.4697H19.9228L14.7021 11.8939L14.4082 12.1074L14.5205 12.4529L16.5146 18.5902L11.2939 14.7971L11 14.5836L10.7061 14.7971L5.48542 18.5902L7.47954 12.4529L7.5918 12.1074L7.29791 11.8939L2.07722 8.10081H8.53035H8.89362L9.00587 7.75532L11 1.61804Z" stroke="#7E8691"/>
        </symbol>
        <symbol xmlns="http://www.w3.org/2000/svg" width="12" height="12" viewBox="0 0 12 12" fill="none" id="close1">
            <path d="M1 1L11 11M1 11L11 1" stroke="white" stroke-opacity="0.5" stroke-width="1.5"/>
        </symbol>
        <symbol xmlns="http://www.w3.org/2000/svg" width="28" height="28" viewBox="0 0 28 28" fill="none" id="arrow-left">
            <circle cx="14" cy="14" r="14" fill="white" fill-opacity="0.2"/>
            <path d="M12 11L16 15L12 19" stroke="black" stroke-width="1.5"/>
        </symbol>
        <symbol xmlns="http://www.w3.org/2000/svg" width="35" height="35" viewBox="0 0 35 35" fill="none" id="cloudy">
            <g clip-path="url(#clip0_101_2)">
            <path d="M29.4091 22.9252C25.7807 22.9252 17.3616 20.275 13.628 16.9702C12.251 15.7514 11.5527 14.4961 11.5527 13.2393C11.5527 10.45 13.822 8.1807 16.6113 8.1807C17.0894 8.1807 17.5612 8.24776 18.0141 8.37833C18.6991 6.38654 20.5868 4.97205 22.7979 4.97205C24.6251 4.97205 26.2966 5.96572 27.1872 7.51536C27.33 7.50326 27.4735 7.49717 27.6172 7.49717C30.4065 7.49717 32.6758 9.76643 32.6758 12.5558C32.6758 12.8838 32.6447 13.2076 32.5829 13.525C34.0587 14.4335 35 16.0673 35 17.8386C35 19.1677 34.4651 20.4084 33.4938 21.3321C32.608 22.1744 31.3907 22.7276 30.0659 22.8896C29.87 22.9135 29.65 22.9252 29.4091 22.9252Z" fill="#EEE1DC"/>
            <path d="M32.5829 13.525C32.6447 13.2075 32.6758 12.8838 32.6758 12.5557C32.6758 9.76637 30.4065 7.49711 27.6172 7.49711C27.4734 7.49711 27.33 7.50319 27.1872 7.51529C26.375 6.1021 24.9133 5.1517 23.2764 4.99522V21.7547C25.6866 22.4909 27.9403 22.9252 29.4091 22.9252C29.65 22.9252 29.87 22.9135 30.0659 22.8896C31.3907 22.7276 32.608 22.1745 33.4938 21.3321C34.4651 20.4084 35 19.1677 35 17.8386C35 16.0673 34.0587 14.4335 32.5829 13.525Z" fill="#E0D2CD"/>
            <path d="M14.5696 30.028C13.4014 30.028 12.2583 29.6246 11.3508 28.8921C10.8815 28.5133 10.4843 28.0546 10.176 27.543C9.51057 27.9491 8.73811 28.1734 7.94288 28.1734C6.0323 28.1734 4.38669 26.9024 3.84583 25.1437C2.96399 25.0524 2.12317 24.6892 1.44758 24.0924C0.527666 23.2798 0 22.1095 0 20.8817C0 18.6629 1.69511 16.8328 3.85813 16.6178C4.0803 15.9171 4.48144 15.2809 5.03152 14.7713C5.82572 14.0355 6.85966 13.6303 7.94288 13.6303C8.73065 13.6303 9.49676 13.8508 10.1583 14.2501C10.4657 13.7322 10.8639 13.2674 11.336 12.8834C12.2462 12.1431 13.3946 11.7354 14.5696 11.7354C15.7447 11.7354 16.8931 12.1431 17.8032 12.8834C18.2753 13.2674 18.6735 13.7322 18.9809 14.2501C19.6425 13.8509 20.4086 13.6303 21.1964 13.6303C22.2796 13.6303 23.3136 14.0356 24.1078 14.7713C24.658 15.2811 25.0592 15.9174 25.2813 16.6184C26.167 16.7077 27.0117 17.071 27.6903 17.6697C28.6112 18.4824 29.1393 19.6531 29.1393 20.8817C29.1393 22.1095 28.6117 23.2798 27.6917 24.0924C27.0162 24.6891 26.1753 25.0523 25.2934 25.1436C24.7526 26.9023 23.1069 28.1734 21.1964 28.1734C20.4012 28.1734 19.6286 27.9489 18.9633 27.543C18.655 28.0546 18.2578 28.5133 17.7885 28.892C16.8809 29.6246 15.7378 30.028 14.5696 30.028Z" fill="#FFF4F4"/>
            <path d="M27.6902 17.6697C27.0116 17.071 26.1669 16.7077 25.2812 16.6184C25.0591 15.9174 24.6579 15.2811 24.1076 14.7713C23.3134 14.0355 22.2795 13.6303 21.1963 13.6303C20.4086 13.6303 19.6424 13.8509 18.9808 14.2501C18.6735 13.7322 18.2753 13.2674 17.8031 12.8834C16.893 12.1431 15.7445 11.7354 14.5695 11.7354V30.028C15.7376 30.028 16.8808 29.6246 17.7883 28.8921C18.2576 28.5133 18.6548 28.0546 18.9631 27.543C19.6285 27.949 20.401 28.1734 21.1962 28.1734C23.1067 28.1734 24.7524 26.9024 25.2933 25.1437C26.175 25.0524 27.0159 24.6891 27.6915 24.0924C28.6115 23.2799 29.1392 22.1096 29.1392 20.8817C29.1392 19.6531 28.6111 18.4824 27.6902 17.6697Z" fill="#F6EFEA"/>
            </g>
            <defs>
            <clipPath id="clip0_101_2">
            <rect width="35" height="35" fill="white"/>
            </clipPath>
            </defs>
        </symbol>
        <symbol xmlns="http://www.w3.org/2000/svg" width="2" height="40" viewBox="0 0 2 40" fill="none" id="line1">
            <path d="M1 0V40" stroke="#27384A"/>
        </symbol>
        <symbol xmlns="http://www.w3.org/2000/svg" width="20" height="20" viewBox="0 0 20 20" fill="none" id="sunrise">
            <g clip-path="url(#clip0_101_197)">
                <path d="M10 3.18918C10.3236 3.18918 10.5859 2.92684 10.5859 2.60324V0.585938C10.5859 0.262344 10.3236 0 10 0C9.67641 0 9.41406 0.262344 9.41406 0.585938V2.60324C9.41406 2.92684 9.67641 3.18918 10 3.18918Z" fill="#FF6B09"/>
                <path d="M19.4141 9.41406H17.3968C17.0732 9.41406 16.8109 9.67641 16.8109 10C16.8109 10.3236 17.0732 10.5859 17.3968 10.5859H19.4141C19.7377 10.5859 20 10.3236 20 10C20 9.67641 19.7377 9.41406 19.4141 9.41406Z" fill="#FF6B09"/>
                <path d="M3.18918 10C3.18918 9.67641 2.92684 9.41406 2.60324 9.41406H0.585938C0.262344 9.41406 0 9.67641 0 10C0 10.3236 0.262344 10.5859 0.585938 10.5859H2.60324C2.92684 10.5859 3.18918 10.3236 3.18918 10Z" fill="#FF6B09"/>
                <path d="M15.2303 5.35552C15.3803 5.35552 15.5302 5.29829 15.6446 5.18388L17.071 3.7574C17.2999 3.52857 17.2999 3.15759 17.071 2.92876C16.8423 2.69997 16.4712 2.69997 16.2424 2.92876L14.816 4.35525C14.5871 4.58408 14.5871 4.95505 14.816 5.18388C14.9304 5.29833 15.0804 5.35552 15.2303 5.35552Z" fill="#FF6B09"/>
                <path d="M15.6446 14.8159C15.4158 14.5871 15.0448 14.5871 14.816 14.8159C14.5871 15.0447 14.5871 15.4157 14.816 15.6445L16.2424 17.071C16.3569 17.1854 16.5068 17.2426 16.6567 17.2426C16.8067 17.2426 16.9567 17.1854 17.071 17.071C17.2999 16.8422 17.2999 16.4712 17.071 16.2424L15.6446 14.8159Z" fill="#FF6B09"/>
                <path d="M4.35537 14.8158L2.92888 16.2423C2.70006 16.4711 2.70006 16.8421 2.92888 17.071C3.0433 17.1854 3.19326 17.2426 3.34318 17.2426C3.4931 17.2426 3.6431 17.1854 3.75748 17.071L5.18393 15.6445C5.41276 15.4157 5.41276 15.0447 5.18393 14.8158C4.95518 14.5871 4.58416 14.5871 4.35537 14.8158Z" fill="#FF6B09"/>
                <path d="M4.35539 5.1839C4.4698 5.29832 4.61977 5.35554 4.76969 5.35554C4.91961 5.35554 5.06961 5.29832 5.18398 5.1839C5.41281 4.95511 5.41281 4.5841 5.18398 4.35527L3.75758 2.92882C3.52879 2.70004 3.15777 2.70004 2.92895 2.92882C2.70012 3.15761 2.70012 3.52863 2.92895 3.75746L4.35539 5.1839Z" fill="#FF6B09"/>
                <path d="M12.6138 3.71079C12.6874 3.74134 12.7635 3.75579 12.8385 3.75579C13.0681 3.75579 13.2861 3.61989 13.3798 3.39458L14.1539 1.53177C14.2781 1.23294 14.1365 0.890008 13.8377 0.765828C13.5389 0.641687 13.196 0.783172 13.0718 1.08208L12.2976 2.94489C12.1735 3.24368 12.315 3.58657 12.6138 3.71079Z" fill="#FF6B09"/>
                <path d="M18.9181 13.0717L17.0553 12.2976C16.7565 12.1734 16.4136 12.3149 16.2894 12.6138C16.1652 12.9126 16.3068 13.2555 16.6056 13.3797L18.4684 14.1538C18.542 14.1844 18.6181 14.1988 18.6931 14.1988C18.9227 14.1988 19.1407 14.0629 19.2344 13.8376C19.3585 13.5388 19.217 13.1959 18.9181 13.0717Z" fill="#FF6B09"/>
                <path d="M7.38618 16.2894C7.08739 16.1652 6.74446 16.3068 6.62024 16.6056L5.8461 18.4684C5.72192 18.7672 5.86348 19.1102 6.16231 19.2343C6.23583 19.2649 6.312 19.2793 6.38692 19.2793C6.61657 19.2793 6.83458 19.1435 6.92821 18.9181L7.70235 17.0553C7.82657 16.7565 7.68501 16.4136 7.38618 16.2894Z" fill="#FF6B09"/>
                <path d="M1.08196 6.92817L2.94477 7.70232C3.01829 7.73286 3.09446 7.74732 3.16938 7.74732C3.39903 7.74732 3.61704 7.61142 3.71067 7.3861C3.83485 7.08728 3.69329 6.74435 3.39446 6.62017L1.53165 5.84602C1.23298 5.72188 0.88993 5.86341 0.765712 6.16224C0.641532 6.46106 0.783134 6.80399 1.08196 6.92817Z" fill="#FF6B09"/>
                <path d="M16.2955 7.40086C16.3888 7.62684 16.6071 7.76336 16.8373 7.76336C16.9118 7.76336 16.9875 7.74907 17.0607 7.71887L18.9253 6.94906C19.2244 6.82555 19.3668 6.48297 19.2434 6.18387C19.1198 5.88473 18.7772 5.74238 18.4782 5.86582L16.6135 6.63563C16.3144 6.75918 16.172 7.10176 16.2955 7.40086Z" fill="#FF6B09"/>
                <path d="M13.3642 16.6136C13.2407 16.3144 12.8981 16.1721 12.599 16.2955C12.2999 16.4191 12.1575 16.7616 12.281 17.0607L13.0508 18.9253C13.1441 19.1513 13.3625 19.2878 13.5926 19.2878C13.6671 19.2878 13.7429 19.2735 13.816 19.2434C14.1151 19.1198 14.2575 18.7773 14.134 18.4782L13.3642 16.6136Z" fill="#FF6B09"/>
                <path d="M3.7045 12.5991C3.58102 12.3 3.23848 12.1577 2.9393 12.2811L1.07465 13.0509C0.77555 13.1744 0.633168 13.517 0.756644 13.8161C0.849925 14.0421 1.06828 14.1786 1.29848 14.1786C1.37297 14.1786 1.44871 14.1643 1.52184 14.1341L3.38649 13.3643C3.68563 13.2408 3.82801 12.8982 3.7045 12.5991Z" fill="#FF6B09"/>
                <path d="M6.63576 3.38662C6.72904 3.61264 6.9474 3.74912 7.1776 3.74912C7.25209 3.74912 7.32783 3.73483 7.40096 3.70463C7.70006 3.58115 7.84244 3.23854 7.71896 2.93944L6.94916 1.07483C6.82568 0.775686 6.48311 0.633342 6.18397 0.75678C5.88486 0.880256 5.74248 1.22287 5.86596 1.52198L6.63576 3.38662Z" fill="#FF6B09"/>
                <path d="M10.5859 15.398C13.3053 15.1048 15.4297 12.7959 15.4297 10C15.4297 7.00605 12.994 4.57031 10 4.57031C7.00602 4.57031 4.57031 7.00605 4.57031 10C4.57031 12.7959 6.69469 15.1048 9.41406 15.398V19.4141C9.41406 19.7377 9.67641 20 10 20C10.3236 20 10.5859 19.7377 10.5859 19.4141V15.398ZM5.74219 10C5.74219 7.65223 7.65223 5.74219 10 5.74219C12.3478 5.74219 14.2578 7.65223 14.2578 10C14.2578 12.149 12.6574 13.9309 10.5859 14.2173V11.9812L10.7185 12.1137C10.9473 12.3425 11.3183 12.3425 11.5471 12.1137C11.776 11.885 11.776 11.5139 11.5471 11.2851L10.4113 10.1493C10.1848 9.92281 9.81844 9.92016 9.58871 10.1434L8.4168 11.2818C8.18469 11.5073 8.1793 11.8783 8.4048 12.1104C8.51969 12.2286 8.6723 12.288 8.82512 12.288C8.97223 12.288 9.11949 12.233 9.23336 12.1224L9.41406 11.9468V14.2174C7.34258 13.9309 5.74219 12.1489 5.74219 10Z" fill="#FF6B09"/>
            </g>
            <defs>
                <clipPath id="clip0_101_197">
                <rect width="20" height="20" fill="white"/>
                </clipPath>
            </defs>
        </symbol>
        <symbol xmlns="http://www.w3.org/2000/svg" width="20" height="20" viewBox="0 0 20 20" fill="none" id="sunset">
            <g clip-path="url(#clip0_101_215)">
                <path d="M10 3.18918C10.3236 3.18918 10.5859 2.92684 10.5859 2.60324V0.585938C10.5859 0.262344 10.3236 0 10 0C9.67641 0 9.41406 0.262344 9.41406 0.585938V2.60324C9.41406 2.92684 9.67641 3.18918 10 3.18918Z" fill="#FF6B09"/>
                <path d="M19.4141 9.41406H17.3968C17.0732 9.41406 16.8109 9.67641 16.8109 10C16.8109 10.3236 17.0732 10.5859 17.3968 10.5859H19.4141C19.7377 10.5859 20 10.3236 20 10C20 9.67641 19.7377 9.41406 19.4141 9.41406Z" fill="#FF6B09"/>
                <path d="M3.18918 10C3.18918 9.67641 2.92684 9.41406 2.60324 9.41406H0.585938C0.262344 9.41406 0 9.67641 0 10C0 10.3236 0.262344 10.5859 0.585938 10.5859H2.60324C2.92684 10.5859 3.18918 10.3236 3.18918 10Z" fill="#FF6B09"/>
                <path d="M15.2303 5.35554C15.3803 5.35554 15.5302 5.29832 15.6446 5.1839L17.071 3.75746C17.2999 3.52867 17.2999 3.15765 17.071 2.92882C16.8423 2.70004 16.4712 2.70004 16.2424 2.92882L14.816 4.35527C14.5871 4.58406 14.5871 4.95507 14.816 5.1839C14.9304 5.29836 15.0804 5.35554 15.2303 5.35554Z" fill="#FF6B09"/>
                <path d="M15.6446 14.8159C15.4158 14.5871 15.0448 14.5871 14.816 14.8159C14.5871 15.0447 14.5871 15.4157 14.816 15.6445L16.2424 17.071C16.3569 17.1854 16.5068 17.2426 16.6567 17.2426C16.8067 17.2426 16.9567 17.1854 17.071 17.071C17.2999 16.8422 17.2999 16.4712 17.071 16.2424L15.6446 14.8159Z" fill="#FF6B09"/>
                <path d="M4.35539 14.8158L2.92895 16.2423C2.70012 16.4712 2.70012 16.8421 2.92895 17.071C3.04336 17.1854 3.19332 17.2426 3.34324 17.2426C3.49317 17.2426 3.64317 17.1854 3.75754 17.071L5.18399 15.6445C5.41282 15.4157 5.41282 15.0447 5.18399 14.8158C4.95524 14.5871 4.58418 14.5871 4.35539 14.8158Z" fill="#FF6B09"/>
                <path d="M4.35543 5.1839C4.46985 5.29832 4.61981 5.35554 4.76973 5.35554C4.91965 5.35554 5.06965 5.29832 5.18403 5.1839C5.41286 4.95507 5.41286 4.5841 5.18403 4.35527L3.75758 2.92882C3.52879 2.70004 3.15777 2.70004 2.92895 2.92882C2.70012 3.15765 2.70012 3.52863 2.92895 3.75746L4.35543 5.1839Z" fill="#FF6B09"/>
                <path d="M12.6138 3.71079C12.6874 3.74134 12.7635 3.75579 12.8385 3.75579C13.0681 3.75579 13.2861 3.61989 13.3798 3.39458L14.1539 1.53177C14.2781 1.23294 14.1365 0.890008 13.8377 0.765828C13.5389 0.641687 13.196 0.783172 13.0718 1.08208L12.2976 2.94489C12.1735 3.24368 12.315 3.58657 12.6138 3.71079Z" fill="#FF6B09"/>
                <path d="M18.9181 13.0717L17.0553 12.2976C16.7564 12.1734 16.4135 12.3149 16.2893 12.6138C16.1652 12.9126 16.3067 13.2555 16.6055 13.3797L18.4684 14.1539C18.5419 14.1844 18.618 14.1989 18.693 14.1989C18.9227 14.1989 19.1407 14.063 19.2343 13.8377C19.3584 13.5388 19.2169 13.1959 18.9181 13.0717Z" fill="#FF6B09"/>
                <path d="M7.3863 16.2893C7.08743 16.1652 6.74454 16.3066 6.62036 16.6055L5.84622 18.4683C5.72204 18.7671 5.86361 19.1101 6.16243 19.2343C6.23599 19.2648 6.31212 19.2793 6.38708 19.2793C6.61673 19.2793 6.83474 19.1434 6.92837 18.918L7.70251 17.0552C7.82665 16.7564 7.68509 16.4135 7.3863 16.2893Z" fill="#FF6B09"/>
                <path d="M1.08187 6.92817L2.94468 7.70232C3.01823 7.73286 3.09437 7.74732 3.16933 7.74732C3.39898 7.74732 3.61698 7.61142 3.71062 7.3861C3.8348 7.08728 3.69323 6.74435 3.39441 6.62017L1.53159 5.84602C1.23277 5.72188 0.889836 5.86341 0.765657 6.16224C0.641477 6.46106 0.783039 6.80399 1.08187 6.92817Z" fill="#FF6B09"/>
                <path d="M16.2955 7.40086C16.3888 7.62684 16.6071 7.76336 16.8373 7.76336C16.9118 7.76336 16.9875 7.74907 17.0607 7.71887L18.9253 6.94906C19.2244 6.82555 19.3668 6.48297 19.2433 6.18387C19.1198 5.88473 18.7771 5.74238 18.4781 5.86582L16.6135 6.63563C16.3143 6.75918 16.172 7.10176 16.2955 7.40086Z" fill="#FF6B09"/>
                <path d="M13.3642 16.6136C13.2407 16.3144 12.898 16.1721 12.599 16.2955C12.2999 16.419 12.1575 16.7616 12.2809 17.0607L13.0507 18.9254C13.1441 19.1514 13.3624 19.2879 13.5926 19.2879C13.6671 19.2879 13.7428 19.2736 13.8159 19.2434C14.115 19.1199 14.2575 18.7773 14.134 18.4782L13.3642 16.6136Z" fill="#FF6B09"/>
                <path d="M3.70462 12.5989C3.5811 12.2998 3.23848 12.1574 2.93942 12.2809L1.07481 13.0507C0.775672 13.1742 0.633289 13.5168 0.756766 13.8159C0.850086 14.0419 1.06845 14.1784 1.2986 14.1784C1.37309 14.1784 1.44884 14.1641 1.52196 14.1339L3.38657 13.3641C3.68575 13.2406 3.82809 12.898 3.70462 12.5989Z" fill="#FF6B09"/>
                <path d="M6.63576 3.38663C6.72908 3.61261 6.94744 3.74913 7.1776 3.74913C7.25209 3.74913 7.32783 3.73484 7.40096 3.70464C7.7001 3.58112 7.84248 3.23855 7.719 2.93945L6.9492 1.07484C6.82568 0.775734 6.48303 0.63339 6.184 0.756789C5.88486 0.880304 5.74248 1.22288 5.86596 1.52198L6.63576 3.38663Z" fill="#FF6B09"/>
                <path d="M10.7185 17.8639L10.5859 17.9965V15.398C13.3053 15.1049 15.4297 12.796 15.4297 10.0001C15.4297 7.00611 12.9939 4.57037 10 4.57037C7.00605 4.57037 4.57031 7.00611 4.57031 10.0001C4.57031 12.796 6.69469 15.1049 9.41406 15.398V18.0309L9.23332 17.8554C9.00125 17.6299 8.63027 17.6353 8.40477 17.8674C8.1793 18.0995 8.18465 18.4704 8.41676 18.6959L9.58871 19.8344C9.7025 19.9449 9.84977 20 9.99695 20C10.147 20 10.297 19.9427 10.4113 19.8284L11.5471 18.6926C11.7759 18.4638 11.7759 18.0928 11.5471 17.864C11.3183 17.6351 10.9473 17.6351 10.7185 17.8639ZM5.74219 10C5.74219 7.65225 7.65223 5.74221 10 5.74221C12.3478 5.74221 14.2578 7.65225 14.2578 10C14.2578 12.149 12.6574 13.9309 10.5859 14.2173V12.8264C10.5859 12.5028 10.3236 12.2405 10 12.2405C9.67641 12.2405 9.41406 12.5028 9.41406 12.8264V14.2173C7.34258 13.9309 5.74219 12.149 5.74219 10Z" fill="#FF6B09"/>
            </g>
            <defs>
                <clipPath id="clip0_101_215">
                <rect width="20" height="20" fill="white"/>
                </clipPath>
            </defs>
        </symbol>
        <symbol xmlns="http://www.w3.org/2000/svg" width="2" height="22" viewBox="0 0 2 22" fill="none" id="line2">
            <path opacity="0.4" d="M1 0V22" stroke="white"/>
        </symbol>
        <symbol xmlns="http://www.w3.org/2000/svg" width="2" height="46" viewBox="0 0 2 46" fill="none" id="line3">
            <path opacity="0.2" d="M1 0V46" stroke="white"/>
        </symbol>
        <symbol xmlns="http://www.w3.org/2000/svg" width="20" height="20" viewBox="0 0 20 20" fill="none" id="barometer">
            <path d="M11.5555 2.57531C11.6844 2.33094 11.7578 2.05285 11.7578 1.75781C11.7578 0.788555 10.9693 0 10 0C9.03076 0 8.2422 0.788555 8.2422 1.75781C8.2422 2.05285 8.3156 2.33094 8.44459 2.57531C4.34185 3.31164 1.21869 6.9073 1.21869 11.2187C1.21869 16.0607 5.15799 20 10 20C14.842 20 18.7813 16.0607 18.7813 11.2187C18.7813 6.9073 15.6582 3.31168 11.5555 2.57531ZM10 1.17188C10.3231 1.17188 10.586 1.43473 10.586 1.75781C10.586 2.0809 10.3231 2.34375 10 2.34375C9.67693 2.34375 9.41408 2.0809 9.41408 1.75781C9.41408 1.43473 9.67693 1.17188 10 1.17188ZM10 18.8281C5.80416 18.8281 2.39056 15.4145 2.39056 11.2187C2.39056 7.02281 5.80416 3.60922 10 3.60922C14.1959 3.60922 17.6095 7.02281 17.6095 11.2187C17.6095 15.4145 14.1959 18.8281 10 18.8281Z" fill="white" fill-opacity="0.54"/>
            <path d="M14.5826 6.68113C14.5744 6.67184 14.5664 6.66234 14.5575 6.65344C14.5481 6.64402 14.5382 6.63563 14.5283 6.62699C13.3622 5.47688 11.7622 4.76562 10 4.76562C8.23032 4.76562 6.62489 5.48188 5.45789 6.63953C5.45282 6.64426 5.44747 6.64848 5.44254 6.65344C5.4384 6.65758 5.43493 6.66207 5.43094 6.66625C4.26735 7.83406 3.547 9.44379 3.547 11.2187C3.547 11.5423 3.80934 11.8046 4.13293 11.8046H4.797C5.12059 11.8046 5.38293 11.5423 5.38293 11.2187C5.38293 10.8951 5.12059 10.6327 4.797 10.6327H4.75157C4.86465 9.61309 5.26911 8.68016 5.87969 7.91922L5.91211 7.95164C6.02653 8.06605 6.17649 8.12328 6.32641 8.12328C6.47633 8.12328 6.62633 8.06609 6.74071 7.95164C6.96954 7.72281 6.96954 7.35184 6.74071 7.12301L6.70915 7.09145C7.46856 6.48469 8.39829 6.08289 9.41411 5.97023V6.01562C9.41411 6.33922 9.67645 6.60156 10 6.60156C10.3236 6.60156 10.586 6.33922 10.586 6.01562V5.97023C11.6014 6.08297 12.5311 6.48496 13.2905 7.09184L13.2594 7.12297C13.0306 7.3518 13.0306 7.72277 13.2594 7.9516C13.3738 8.06602 13.5238 8.12324 13.6737 8.12324C13.8236 8.12324 13.9736 8.06605 14.088 7.9516L14.12 7.91961C14.7291 8.67863 15.1332 9.60867 15.2476 10.625H15.1954C14.8718 10.625 14.6094 10.8873 14.6094 11.2109C14.6094 11.5345 14.8718 11.7969 15.1954 11.7969C15.1954 11.7969 15.8677 11.7968 15.8679 11.7968C16.1915 11.7964 16.4535 11.5337 16.4531 11.2101C16.4507 9.44629 15.7361 7.84598 14.5826 6.68113Z" fill="white" fill-opacity="0.54"/>
            <path d="M12.6571 8.56151C12.4283 8.33269 12.0573 8.33269 11.8285 8.56151L9.38164 11.0084C9.11074 10.8789 8.80836 10.8192 8.50207 10.8407C8.17925 10.8632 7.93582 11.1432 7.95836 11.466C7.9809 11.7888 8.26058 12.0324 8.58367 12.0097C8.75293 11.9978 8.91879 12.0599 9.03875 12.1799C9.15687 12.298 9.21906 12.4614 9.20937 12.6282C9.19062 12.9512 9.4373 13.2283 9.76035 13.2471C9.77191 13.2478 9.78339 13.2481 9.79484 13.2481C10.1029 13.248 10.3612 13.0076 10.3793 12.6961C10.3966 12.3972 10.3364 12.1021 10.2101 11.8373L12.6571 9.39019C12.8859 9.16132 12.8859 8.79034 12.6571 8.56151Z" fill="white" fill-opacity="0.54"/>
            <path d="M13.3594 15.4297H6.64062C6.31703 15.4297 6.05469 15.692 6.05469 16.0156C6.05469 16.3392 6.31703 16.6016 6.64062 16.6016H13.3594C13.683 16.6016 13.9453 16.3392 13.9453 16.0156C13.9453 15.692 13.683 15.4297 13.3594 15.4297Z" fill="white" fill-opacity="0.54"/>
        </symbol>
        <symbol xmlns="http://www.w3.org/2000/svg" width="20" height="20" viewBox="0 0 20 20" fill="none" id="humidity">
            <g clip-path="url(#clip0_104_328)">
            <path fill-rule="evenodd" clip-rule="evenodd" d="M17.8876 5.87409C17.5147 5.23588 17.1161 4.63252 16.7652 4.17506C16.2479 3.50068 15.9423 3.26165 15.5975 3.26165C15.2707 3.26165 15.0049 3.49056 14.7064 3.83427C14.4866 4.08736 14.2246 4.4383 13.9488 4.849C13.5535 5.43756 13.1739 6.07944 12.8494 6.70225C12.5018 6.03577 12.1768 5.46139 11.9365 5.05018C11.1847 3.76353 10.3829 2.54946 9.67869 1.63153C8.52388 0.126094 8.0897 0 7.77341 0C7.45711 0 7.02293 0.126094 5.86805 1.63157C5.1639 2.5495 4.36206 3.76357 3.61026 5.05022C2.70678 6.59635 0.605408 10.4497 0.605408 12.832C0.605408 16.7845 3.82097 20 7.77341 20C11.4819 20 14.5414 17.1692 14.9051 13.5551C15.1324 13.597 15.3638 13.6189 15.5976 13.6189C17.6912 13.6189 19.3945 11.9156 19.3945 9.82191C19.3945 8.63074 18.4504 6.83718 17.8876 5.87409ZM7.77341 18.8281C4.46714 18.8281 1.77729 16.1383 1.77729 12.832C1.77729 11.4363 2.77702 8.85824 4.45159 5.93592C5.94633 3.32751 7.27899 1.65028 7.77341 1.23668C8.26782 1.65028 9.60044 3.32747 11.0952 5.93592C12.7698 8.85828 13.7695 11.4363 13.7695 12.832C13.7695 16.1383 11.0797 18.8281 7.77341 18.8281ZM15.5976 12.447C15.3656 12.447 15.1373 12.4166 14.9163 12.3574C14.7872 11.0661 14.1754 9.46101 13.5066 8.02948C14.1582 6.5744 15.1249 5.14057 15.597 4.59349C15.8952 4.93717 16.4233 5.66143 17.0107 6.69995C17.7696 8.04167 18.2227 9.20875 18.2227 9.82191C18.2227 11.2693 17.045 12.447 15.5976 12.447Z" fill="white" fill-opacity="0.54"/>
            <path fill-rule="evenodd" clip-rule="evenodd" d="M9.38205 10.0454C9.10178 9.88353 8.74346 9.97966 8.58166 10.2599L5.95018 14.8178C5.78838 15.0981 5.8844 15.4564 6.16463 15.6182C6.2569 15.6715 6.35764 15.6968 6.45705 15.6968C6.65955 15.6968 6.85651 15.5917 6.96502 15.4037L9.59651 10.8458C9.7583 10.5656 9.66229 10.2072 9.38205 10.0454Z" fill="white" fill-opacity="0.54"/>
            <path fill-rule="evenodd" clip-rule="evenodd" d="M6.30859 11.2109C6.30859 10.8882 6.04539 10.625 5.72266 10.625C5.39992 10.625 5.13672 10.8882 5.13672 11.2109C5.13672 11.5337 5.39996 11.7969 5.72266 11.7969C6.04535 11.7969 6.30859 11.5337 6.30859 11.2109Z" fill="white" fill-opacity="0.54"/>
            <path fill-rule="evenodd" clip-rule="evenodd" d="M9.6289 13.9453C9.30617 13.9453 9.04297 14.2085 9.04297 14.5312C9.04297 14.854 9.30621 15.1172 9.6289 15.1172C9.95163 15.1172 10.2148 14.8539 10.2148 14.5312C10.2148 14.2085 9.9516 13.9453 9.6289 13.9453Z" fill="white" fill-opacity="0.54"/>
            </g>
            <defs>
            <clipPath id="clip0_104_328">
            <rect width="20" height="20" fill="white"/>
            </clipPath>
            </defs>
        </symbol>
        <symbol xmlns="http://www.w3.org/2000/svg" width="20" height="20" viewBox="0 0 20 20" fill="none" id="wind">
            <path d="M15.8223 1.6521C14.8747 1.6521 13.9458 1.97882 13.2069 2.57206C12.9546 2.77468 12.9143 3.14343 13.1168 3.39577C13.3194 3.64808 13.6882 3.68847 13.9406 3.48585C14.4722 3.05901 15.1405 2.82397 15.8223 2.82397C17.4797 2.82397 18.8281 4.17237 18.8281 5.8298C18.8281 7.48722 17.4797 8.83562 15.8223 8.83562H4.80463C4.48103 8.83562 4.21869 9.09796 4.21869 9.42155C4.21869 9.74515 4.48103 10.0075 4.80463 10.0075H15.8223C18.1259 10.0075 20 8.13339 20 5.8298C20 3.5262 18.1258 1.6521 15.8223 1.6521Z" fill="white" fill-opacity="0.54"/>
            <path d="M3.68213 7.66772H9.94139C10.265 7.66772 10.5273 7.40538 10.5273 7.08179C10.5273 6.75819 10.265 6.49585 9.94139 6.49585H3.68213C3.35854 6.49585 3.09619 6.75819 3.09619 7.08179C3.09619 7.40538 3.35854 7.66772 3.68213 7.66772Z" fill="white" fill-opacity="0.54"/>
            <path d="M9.77715 11.1833H0.585938C0.262344 11.1833 0 11.4457 0 11.7693C0 12.0929 0.262344 12.3552 0.585938 12.3552H9.77715C11.1062 12.3552 12.1876 13.4365 12.1876 14.7656C12.1876 16.0947 11.1062 17.176 9.77715 17.176C9.23039 17.176 8.69453 16.9875 8.26816 16.6452C8.01586 16.4426 7.64707 16.483 7.44445 16.7353C7.24184 16.9876 7.28219 17.3564 7.53453 17.559C8.16816 18.0677 8.96461 18.3478 9.77715 18.3478C11.7524 18.3478 13.3595 16.7408 13.3595 14.7656C13.3595 12.7903 11.7524 11.1833 9.77715 11.1833Z" fill="white" fill-opacity="0.54"/>
            <path d="M0.585938 7.66772H1.37637C1.69996 7.66772 1.9623 7.40538 1.9623 7.08179C1.9623 6.75819 1.69996 6.49585 1.37637 6.49585H0.585938C0.262344 6.49585 0 6.75819 0 7.08179C0 7.40538 0.262344 7.66772 0.585938 7.66772Z" fill="white" fill-opacity="0.54"/>
            <path d="M7.65625 14.1016C7.65625 13.778 7.39391 13.5156 7.07031 13.5156H3.55469C3.23109 13.5156 2.96875 13.778 2.96875 14.1016C2.96875 14.4252 3.23109 14.6875 3.55469 14.6875H7.07031C7.39395 14.6875 7.65625 14.4252 7.65625 14.1016Z" fill="white" fill-opacity="0.54"/>
        </symbol>
    </defs>
</svg>